<?xml version="1.0" encoding="utf-8"?>
<!-- Generator: Adobe Illustrator 23.0.4, SVG Export Plug-In . SVG Version: 6.00 Build 0)  -->
<svg version="1.1" id="Capa_1" xmlns="http://www.w3.org/2000/svg" xmlns:xlink="http://www.w3.org/1999/xlink" x="0px" y="0px"
	 viewBox="0 0 100 56" style="enable-background:new 0 0 100 56;" xml:space="preserve">
<style type="text/css">
	.st0{fill-rule:evenodd;clip-rule:evenodd;fill:#303C49;}
	.st1{fill-rule:evenodd;clip-rule:evenodd;fill:#ABADB0;}
	.st2{fill-rule:evenodd;clip-rule:evenodd;fill:url(#SVGID_1_);}
	.st3{fill:#FFFFFF;}
	.st4{fill-rule:evenodd;clip-rule:evenodd;fill:#FFFFFF;}
	.st5{fill-rule:evenodd;clip-rule:evenodd;fill:#231F20;}
	.st6{fill-rule:evenodd;clip-rule:evenodd;fill:url(#SVGID_2_);}
	.st7{fill:#231F20;}
	.st8{fill-rule:evenodd;clip-rule:evenodd;fill:url(#SVGID_3_);}
	.st9{fill-rule:evenodd;clip-rule:evenodd;fill:url(#SVGID_4_);}
	.st10{fill-rule:evenodd;clip-rule:evenodd;fill:url(#SVGID_5_);}
	.st11{fill:url(#SVGID_6_);}
</style>
<title>badge</title>
<g>
	<path class="st0" d="M0,0h100v56H0V0z"/>
	<g>
		<path class="st1" d="M24.8,35.9h4.7l3.2,3.2l3.1-3.2h4.7v9.7h-5.1V42l-2.8,2.8L29.9,42v3.6h-5.1L24.8,35.9L24.8,35.9z M59.4,35.9
			h5l5.6,4.2v-4.2h5.1v9.7h-5l-5.6-4.1v4.1h-5.1C59.4,45.6,59.4,35.9,59.4,35.9z"/>
		<path class="st1" d="M19,42.2C19,25,32.9,11,50,11C67.1,11,81,25,81,42.2c0,1.2-0.1,2.3-0.2,3.4h-3.5c0.1-1.1,0.2-2.3,0.2-3.4
			c0-15.3-12.3-27.6-27.5-27.6S22.5,26.9,22.5,42.2c0,1.2,0.1,2.3,0.2,3.4h-3.5C19.1,44.4,19,43.3,19,42.2z"/>
		<path class="st1" d="M47.3,35.9h5.3l6.3,9.7h-5.3l-0.7-1.1H47l-0.7,1.1h-5.3C41.1,45.6,47.3,35.9,47.3,35.9z M50,39.9l-1.2,1.8
			h2.4L50,39.9L50,39.9z"/>
		
			<linearGradient id="SVGID_1_" gradientUnits="userSpaceOnUse" x1="-892.8861" y1="552.2819" x2="-891.8861" y2="552.2819" gradientTransform="matrix(56.411 0 0 -31.508 50390.3711 17430.8789)">
			<stop  offset="0" style="stop-color:#FFFFFF"/>
			<stop  offset="0.3" style="stop-color:#F9F9F9"/>
			<stop  offset="0.4" style="stop-color:#D1D3D4"/>
			<stop  offset="0.5" style="stop-color:#7B7D7F"/>
			<stop  offset="0.6" style="stop-color:#525254"/>
			<stop  offset="1" style="stop-color:#231F20"/>
		</linearGradient>
		<path class="st2" d="M78.1,44.9c0.1-0.9,0.1-1.8,0.1-2.7c0-15.6-12.6-28.3-28.2-28.3c-15.6,0-28.2,12.7-28.2,28.3
			c0,0.9,0,1.8,0.1,2.7l0.5,0.4c-0.1-1.1-0.2-2.1-0.2-3.2c0-15.4,12.4-27.9,27.8-27.9s27.8,12.5,27.8,27.9c0,1.1-0.1,2.1-0.2,3.2
			L78.1,44.9L78.1,44.9z"/>
		<path class="st3" d="M29.4,36.1H25v9.2h4.6v-3.9l3,3l3-3v3.9h4.6v-9.2h-4.4l-3.2,3.3C32.7,39.4,29.4,36.1,29.4,36.1z M64.3,36.1
			h-4.6v9.2h4.6V41l5.9,4.4h4.7v-9.2h-4.6v4.4C70.2,40.6,64.3,36.1,64.3,36.1z"/>
		<path class="st4" d="M51.6,42h-3.3l1.6-2.5L51.6,42L51.6,42z M52.5,36.1h-5l-6,9.2h4.7l0.7-1.1h6.1l0.7,1.1h4.7L52.5,36.1
			L52.5,36.1z"/>
		<path class="st1" d="M50,38.7v0.8c-0.6,1.3-1.1,2.1-1.6,2.5l-0.8,0.4C47.5,42.5,50,38.7,50,38.7z"/>
		<path class="st5" d="M19.8,44.9h2.1l0.5,0.4h-3C19.4,45.3,19.8,44.9,19.8,44.9z M78.1,44.9h2.1l0.4,0.4h-3L78.1,44.9z M25,36.1
			l0.4,0.4v8.3h3.7l0.4,0.4H25V36.1z M29.2,40.4l3.5,3.5l3.5-3.5v4.5h3.7l0.4,0.4h-4.6v-3.9l-3,3l-3-3
			C29.6,41.4,29.2,40.4,29.2,40.4z M32.7,39.4l3.2-3.3l0.2,0.4L32.7,40L32.7,39.4L32.7,39.4z M50,38.7l2.4,3.8L51.6,42L50,39.5V38.7
			z M59.7,36.1l0.4,0.4v8.3h3.7l0.4,0.4h-4.6C59.7,45.3,59.7,36.1,59.7,36.1z M63.8,40.1l6.5,4.8h4.1l0.4,0.4h-4.7L64.3,41
			L63.8,40.1L63.8,40.1z M70.2,36.1l0.4,0.4v4.8l-0.4-0.9C70.2,40.6,70.2,36.1,70.2,36.1z"/>
		
			<linearGradient id="SVGID_2_" gradientUnits="userSpaceOnUse" x1="-893.1934" y1="553.1357" x2="-894.1534" y2="553.6022" gradientTransform="matrix(61.467 0 0 -34.049 54983.7461 18874.1699)">
			<stop  offset="0" style="stop-color:#FFFFFF"/>
			<stop  offset="0.6" style="stop-color:#F8F8F8"/>
			<stop  offset="0.7" style="stop-color:#E4E5E6"/>
			<stop  offset="0.8" style="stop-color:#939598"/>
			<stop  offset="0.9" style="stop-color:#58595B"/>
			<stop  offset="1" style="stop-color:#231F20"/>
		</linearGradient>
		<path class="st6" d="M80.6,45.3c0.1-1,0.2-2.1,0.2-3.2c0-17-13.8-30.9-30.7-30.9c-17,0-30.7,13.8-30.7,30.9c0,1.1,0.1,2.1,0.2,3.2
			l0.4-0.4c-0.1-0.9-0.1-1.8-0.1-2.7c0-16.8,13.6-30.4,30.3-30.4c16.7,0,30.3,13.6,30.3,30.4c0,0.9,0,1.8-0.1,2.7
			C80.2,44.9,80.6,45.3,80.6,45.3z"/>
		<path class="st7" d="M46.7,43.8h6.6l0.7,1.1h3.7l0.8,0.4h-4.7l-0.7-1.1h-6.1l-0.7,1.1h-4.7l6-9.2l0.2,0.4l-5.4,8.3H46L46.7,43.8
			L46.7,43.8z"/>
		
			<linearGradient id="SVGID_3_" gradientUnits="userSpaceOnUse" x1="-845.6619" y1="506.316" x2="-844.9654" y2="507.7586" gradientTransform="matrix(14.386 0 0 -8.314 12193.332 4256.2476)">
			<stop  offset="0" style="stop-color:#808285"/>
			<stop  offset="1" style="stop-color:#E6E7E8"/>
		</linearGradient>
		<path class="st8" d="M29.2,36.6h-3.8v8.3h3.7v-4.5l3.5,3.5l3.5-3.5v4.5h3.7v-8.3h-3.8L32.7,40L29.2,36.6L29.2,36.6z"/>
		
			<linearGradient id="SVGID_4_" gradientUnits="userSpaceOnUse" x1="-893.9782" y1="553.1329" x2="-892.9819" y2="552.973" gradientTransform="matrix(60.592 0 0 -33.169 54188.8086 18373.8867)">
			<stop  offset="0" style="stop-color:#808285"/>
			<stop  offset="0.2" style="stop-color:#D4D6D7"/>
			<stop  offset="0.3" style="stop-color:#E3E4E5"/>
			<stop  offset="0.7" style="stop-color:#E3E4E5"/>
			<stop  offset="0.8" style="stop-color:#D1D3D4"/>
			<stop  offset="1" style="stop-color:#808285"/>
		</linearGradient>
		<path class="st9" d="M50,11.7c-16.7,0-30.3,13.6-30.3,30.4c0,0.9,0,1.8,0.1,2.7h2.1c-0.1-0.9-0.1-1.8-0.1-2.7
			c0-15.6,12.6-28.3,28.2-28.3c15.6,0,28.2,12.7,28.2,28.3c0,0.9,0,1.8-0.1,2.7h2.1c0.1-0.9,0.1-1.8,0.1-2.7
			C80.3,25.4,66.7,11.7,50,11.7z"/>
		
			<linearGradient id="SVGID_5_" gradientUnits="userSpaceOnUse" x1="-844.4931" y1="506.5088" x2="-845.4722" y2="507.5666" gradientTransform="matrix(14.311 0 0 -8.314 12159.8008 4256.2476)">
			<stop  offset="0" style="stop-color:#808285"/>
			<stop  offset="1" style="stop-color:#E6E7E8"/>
		</linearGradient>
		<path class="st10" d="M64.2,36.6h-4.1v8.3h3.7v-4.8l6.5,4.8h4.1v-8.3h-3.7v4.9L64.2,36.6z"/>
		
			<linearGradient id="SVGID_6_" gradientUnits="userSpaceOnUse" x1="-849.2186" y1="506.3065" x2="-849.0401" y2="507.5396" gradientTransform="matrix(15.325 0 0 -8.314 13063.752 4256.2485)">
			<stop  offset="0" style="stop-color:#ABADB0"/>
			<stop  offset="1" style="stop-color:#E6E7E8"/>
		</linearGradient>
		<path class="st11" d="M52.4,42.5h-4.9l2.4-3.8L52.4,42.5z M52.3,36.6h-4.6l-5.4,8.3H46l0.7-1.1h6.6l0.7,1.1h3.7L52.3,36.6
			L52.3,36.6z"/>
	</g>
</g>
</svg>
