<?xml version="1.0" encoding="utf-8"?>
<!-- Generator: Adobe Illustrator 23.0.3, SVG Export Plug-In . SVG Version: 6.00 Build 0)  -->
<svg version="1.1" id="Logo_FINAL" xmlns="http://www.w3.org/2000/svg" xmlns:xlink="http://www.w3.org/1999/xlink" x="0px" y="0px"
	 viewBox="0 0 710.84 595.73" style="enable-background:new 0 0 710.84 595.73;" xml:space="preserve">
<g>
	<g>
		<path d="M177.81,475.61l-75.37-6.23c-6.23-0.49-7.32-2.66-7.32-6.42c0-3.46,1.88-5.44,6.62-5.44h93.16v-14.71H99.38
			c-13.64,0-22.92,5.24-22.92,20.45c0,15.31,7.01,20.45,22.52,21.73l75.57,6.32c5.83,0.5,7.41,2.47,7.41,6.61
			c0,3.96-1.78,6.42-6.92,6.42H80.21v14.92h96.51c16.6,0,23.9-6.63,23.9-22.32C200.62,482.63,194,477,177.81,475.61z M226.69,493
			c0,17.18,9.41,26.28,29.64,26.28h89.12v-14.92h-84.37c-11.85,0-14.03-3.85-14.03-14.53v-2.46h94.44v-14.62h-94.44v-15.01h98.39
			v-14.93H226.69V493z M295.02,150.69c4.93-0.63,46.42-1.37,92.51-0.91c46.09,0.46,99,3.18,130.17,4.78
			c-0.66-13.46-1.89-37.94-2.5-47.12c-1.06-16.04-1.57-19.11-5.57-21.85c-1.85-1.27-5.41-3.04-14.82-3.7
			c-90.38-6.33-162.5-6.86-233.35-3.01c-30.58,1.66-43.39,3.99-54.37,13.74c-7.96,7.06-12.01,18.8-12.67,38.07
			c-0.51,15.06-1.18,40.62-1.44,51.06l325.15,56.23v-34.9l-239.19-44.34C280.33,156.68,284.95,151.97,295.02,150.69z M376.75,470.77
			v48.5H397v-22.32h76.96v22.32h20.25v-76.46h-87.92C386.04,442.82,376.75,453.58,376.75,470.77z M473.95,457.74v24.19H397v-6.72
			c0-10.47,1.67-17.47,14.03-17.47H473.95z M519.01,442.82v14.93h47.51v61.53h20.25v-61.53h47.61v-14.93H519.01z M192.69,237.98
			l237.18,40.45c-4.86,7.59-14.46,9.55-21.58,9.55c-9.12,0-43.4-0.42-56.58-0.42c-52.5,0-116.92-2.08-158.85-4.91
			c0.51,10.48,2.06,42.16,2.77,52.9c1.06,16.04,1.57,19.11,5.57,21.85c1.86,1.27,5.41,3.04,14.82,3.7
			c90.38,6.33,162.5,6.86,233.35,3.01c30.58-1.67,43.38-3.99,54.37-13.74c7.96-7.07,12.02-18.8,12.67-38.08
			c0.55-16.08,1.27-44.13,1.5-52.96l-325.2-60.55V237.98z"/>
	</g>
</g>
</svg>
